<svg xmlns="http://www.w3.org/2000/svg" viewBox="0 0 167.77 178.25"><defs><style>.cls-1{fill:#a0c17c;}</style></defs><g id="Capa_2" data-name="Capa 2"><g id="Capa_1-2" data-name="Capa 1"><path class="cls-1" d="M83.66,141.53C82.41,141.53,35,89.8,12.34,65c0,.11,0,.23,0,.34V170.55a7.69,7.69,0,0,0,7.69,7.7H147.32a7.69,7.69,0,0,0,7.69-7.7V65.37c0-.08,0-.15,0-.23C132.51,90,85.54,141.53,83.66,141.53Z"/><path class="cls-1" d="M163.66,32.84a.25.25,0,0,0-.1.08l-10.91,11.9-2.26,2.48L141.84,41V9.88A1.88,1.88,0,0,0,140,8H119.73a1.89,1.89,0,0,0-1.89,1.88V23.23L88.46,1.51a7.7,7.7,0,0,0-9.15,0L17.41,47.28,15.14,44.8,3.84,32.51H2.7A2.84,2.84,0,0,0,.76,37.29s4.67,5.13,11.8,12.92C35.2,75,82.63,126.71,83.88,126.71c1.88,0,48.85-51.57,71.34-76.38,7.12-7.86,11.79-13,11.79-13A2.82,2.82,0,0,0,163.66,32.84ZM112,54.57c-.76,6.73-5.06,12.16-9.23,17.32L85.52,93.26c-.15.19-.3.38-.44.58l-1,1.38c-.4-.39-.79-.79-1.18-1.18A11.46,11.46,0,0,1,82,93l-17-21.11c-3.74-4.63-7.59-9.49-8.89-15.3C54.35,49,58.49,39.3,68.31,40.68a12.25,12.25,0,0,1,4.63,1.65,20,20,0,0,1,6.46,6.4,34.38,34.38,0,0,1,4.15,8.17c.14.34.4,1,.54,1s.09-.57.06-1c1.92-4.51,4.07-9.08,7.69-12.39,5-4.55,13.34-6.21,18,.71A14,14,0,0,1,112,54.57Z"/></g></g></svg>