<svg xmlns="http://www.w3.org/2000/svg" viewBox="0 0 141.77 150.62"><defs><style>.cls-1{fill:#a0c17c;}</style></defs><g id="Capa_2" data-name="Capa 2"><g id="Capa_1-2" data-name="Capa 1"><path class="cls-1" d="M70.7,119.59c-1.06,0-41.14-43.71-60.27-64.64a2.83,2.83,0,0,0,0,.29v88.88a6.5,6.5,0,0,0,6.5,6.5H124.49a6.5,6.5,0,0,0,6.5-6.5V55.24c0-.07,0-.13,0-.2C112,76,72.29,119.59,70.7,119.59Z"/><path class="cls-1" d="M138.3,27.75l-.09.06L129,37.88,127.08,40l-7.22-5.34V8.35a1.59,1.59,0,0,0-1.59-1.59h-17.1a1.59,1.59,0,0,0-1.59,1.59V19.63L74.75,1.27a6.53,6.53,0,0,0-7.73,0L14.71,40l-1.92-2.09L3.25,27.48h-1a2.39,2.39,0,0,0-1.64,4l10,10.92c19.13,20.93,59.21,64.65,60.27,64.65,1.59,0,41.28-43.59,60.28-64.55,6-6.64,10-11,10-11A2.39,2.39,0,0,0,138.3,27.75ZM69.62,70.07a2.25,2.25,0,0,1-2.25,2.25h-12a2.25,2.25,0,0,1-2.25-2.25v-12a2.25,2.25,0,0,1,2.25-2.25h12a2.25,2.25,0,0,1,2.25,2.25Zm0-19.82a2.25,2.25,0,0,1-2.25,2.25h-12a2.25,2.25,0,0,1-2.25-2.25v-12A2.25,2.25,0,0,1,55.35,36h12a2.25,2.25,0,0,1,2.25,2.25ZM89.44,70.07a2.25,2.25,0,0,1-2.25,2.25h-12a2.25,2.25,0,0,1-2.25-2.25v-12a2.25,2.25,0,0,1,2.25-2.25h12a2.25,2.25,0,0,1,2.25,2.25Zm0-19.82a2.25,2.25,0,0,1-2.25,2.25h-12a2.25,2.25,0,0,1-2.25-2.25v-12A2.25,2.25,0,0,1,75.17,36h12a2.25,2.25,0,0,1,2.25,2.25Z"/></g></g></svg>