<svg xmlns="http://www.w3.org/2000/svg" viewBox="0 0 205.82 205.82"><defs><style>.cls-1{fill:#a0c17c;}</style></defs><g id="Capa_2" data-name="Capa 2"><g id="Capa_1-2" data-name="Capa 1"><path class="cls-1" d="M102.91,0h0C46.31,0,0,46.31,0,102.91H0c0,56.6,46.31,102.91,102.91,102.91h0c56.6,0,102.91-46.31,102.91-102.91h0C205.82,46.31,159.51,0,102.91,0Zm53.88,160.52a5.86,5.86,0,0,1-5.86,5.87H53.77a5.87,5.87,0,0,1-5.87-5.87V80.25a2.46,2.46,0,0,1,0-.26c17.27,18.9,53.47,58.38,54.43,58.38,1.43,0,37.27-39.36,54.43-58.29a1,1,0,0,1,0,.17ZM166,58.82s-3.57,4-9,9.95c-17.16,18.94-53,58.29-54.44,58.29-1,0-37.15-39.47-54.43-58.37l-9-9.87a2.16,2.16,0,0,1,1.48-3.64h.87l8.62,9.38,1.74,1.88L99,31.52a5.87,5.87,0,0,1,7,0L128.43,48.1V37.91a1.44,1.44,0,0,1,1.43-1.44h15.45a1.44,1.44,0,0,1,1.43,1.44V61.64l6.52,4.82L155,64.57l8.32-9.08a.21.21,0,0,1,.08-.06A2.15,2.15,0,0,1,166,58.82Z"/><path class="cls-1" d="M108.58,64.33c-2.75,2.53-4.4,6-5.86,9.46,0,.29,0,.7,0,.72s-.31-.46-.41-.72a26.11,26.11,0,0,0-3.17-6.24,15.23,15.23,0,0,0-4.93-4.88,9.53,9.53,0,0,0-3.53-1.26c-7.49-1-10.65,6.35-9.36,12.14,1,4.44,3.93,8.14,6.78,11.68l13,16.11c.23.27.47.54.72.79l.9.9.76-1c.1-.15.22-.3.34-.45l13.16-16.3c3.18-3.94,6.46-8.09,7-13.22a10.57,10.57,0,0,0-1.63-7.13C118.77,59.6,112.37,60.86,108.58,64.33Z"/></g></g></svg>