<svg xmlns="http://www.w3.org/2000/svg" viewBox="0 0 106.18 106.18"><defs><style>.cls-1{fill:#a0c17c;}</style></defs><g id="Capa_2" data-name="Capa 2"><g id="Capa_1-2" data-name="Capa 1"><rect class="cls-1" x="49.23" y="44.72" width="7.56" height="7.56" transform="translate(-18.77 51.69) rotate(-45)"/><path class="cls-1" d="M45.86,36l-3.53,3.53a2.57,2.57,0,0,0,0,3.63l3.53,3.53,5.34-5.35Z"/><rect class="cls-1" x="49.39" y="30.26" width="7.56" height="7.56" transform="translate(-8.5 47.57) rotate(-45)"/><path class="cls-1" d="M53.09,0h0A53.25,53.25,0,0,0,0,53.09H0a53.25,53.25,0,0,0,53.09,53.09h0a53.25,53.25,0,0,0,53.09-53.09h0A53.25,53.25,0,0,0,53.09,0ZM81.35,82.9a3.06,3.06,0,0,1-3,3H27.88a3,3,0,0,1-3.05-3V41.24a.57.57,0,0,1,0-.13c9,9.81,27.75,30.3,28.25,30.3.74,0,19.35-20.43,28.25-30.26,0,0,0,.06,0,.09ZM86,30.12l-4.67,5.16c-8.9,9.83-27.51,30.26-28.25,30.26-.5,0-19.29-20.49-28.25-30.3l-4.68-5.12a1.12,1.12,0,0,1,.77-1.89h.46l4.47,4.86.9,1L51.28,16a3,3,0,0,1,3.62,0l11.64,8.6V19.26a.74.74,0,0,1,.74-.74h8a.74.74,0,0,1,.74.74V31.58l3.39,2.5.9-1,4.32-4.71s0,0,0,0A1.11,1.11,0,0,1,86,30.12Z"/><path class="cls-1" d="M60.32,35.85,55,41.19l5.35,5.34L63.84,43a2.57,2.57,0,0,0,0-3.64Z"/></g></g></svg>