<svg xmlns="http://www.w3.org/2000/svg" viewBox="0 0 141.77 150.62"><defs><style>.cls-1{fill:#a0c17c;}</style></defs><g id="Capa_2" data-name="Capa 2"><g id="Capa_1-2" data-name="Capa 1"><path class="cls-1" d="M70.88,119.59c-1.06,0-41.14-43.71-60.27-64.64,0,.1,0,.19,0,.29v88.88a6.5,6.5,0,0,0,6.5,6.5H124.68a6.5,6.5,0,0,0,6.5-6.5V55.24a1.36,1.36,0,0,0,0-.2C112.16,76,72.47,119.59,70.88,119.59Z"/><path class="cls-1" d="M138.3,27.75l-.09.06L129,37.88,127.08,40l-7.22-5.34V8.35a1.59,1.59,0,0,0-1.59-1.59h-17.1a1.59,1.59,0,0,0-1.59,1.59V19.63L74.75,1.27a6.53,6.53,0,0,0-7.73,0L14.71,40l-1.92-2.09L3.25,27.48h-1a2.39,2.39,0,0,0-1.64,4l10,10.92c19.13,20.93,59.21,64.65,60.27,64.65,1.59,0,41.28-43.59,60.28-64.55,6-6.64,10-11,10-11A2.39,2.39,0,0,0,138.3,27.75ZM71.06,29.52l11.4,11.4-11.4,11.4-11.4-11.4ZM49,59.36a5.49,5.49,0,0,1,0-7.76l7.52-7.52,11.4,11.4L56.5,66.88ZM70.71,81.09l-11.4-11.4,11.4-11.4,11.4,11.4ZM92.79,59l-7.52,7.53-11.4-11.4,11.4-11.4,7.52,7.52A5.48,5.48,0,0,1,92.79,59Z"/></g></g></svg>