<svg xmlns="http://www.w3.org/2000/svg" viewBox="0 0 106.18 106.18"><defs><style>.cls-1{fill:#a0c17c;}</style></defs><g id="Capa_2" data-name="Capa 2"><g id="Capa_1-2" data-name="Capa 1"><rect class="cls-1" x="44.11" y="41.17" width="7.69" height="7.69" rx="1.05"/><rect class="cls-1" x="54.32" y="41.17" width="7.69" height="7.69" rx="1.05"/><rect class="cls-1" x="44.11" y="31.45" width="7.69" height="7.69" rx="1.05"/><path class="cls-1" d="M53.09,0h0A53.25,53.25,0,0,0,0,53.09H0a53.25,53.25,0,0,0,53.09,53.09h0a53.25,53.25,0,0,0,53.09-53.09h0A53.25,53.25,0,0,0,53.09,0ZM80.88,82.32a3,3,0,0,1-3,3H27.74a3,3,0,0,1-3-3V40.91s0-.09,0-.13C33.63,50.53,52.3,70.89,52.8,70.89c.74,0,19.23-20.3,28.08-30.07v41.5Zm4.73-52.46S83.77,31.9,81,35c-8.85,9.77-27.34,30.07-28.08,30.07-.49,0-19.16-20.36-28.08-30.12l-4.64-5.08A1.12,1.12,0,0,1,20.92,28h.45l4.45,4.83.9,1,24.36-18a3,3,0,0,1,3.6,0l11.57,8.55V19.07a.74.74,0,0,1,.74-.74h8a.74.74,0,0,1,.74.74V31.31l3.36,2.49.89-1,4.3-4.68s0,0,0,0A1.11,1.11,0,0,1,85.61,29.86Z"/><rect class="cls-1" x="54.32" y="31.45" width="7.69" height="7.69" rx="1.05"/></g></g></svg>