<svg xmlns="http://www.w3.org/2000/svg" viewBox="0 0 373.53 283.54"><defs><style>.cls-1{fill:#a0c17c;}</style></defs><g id="Capa_2" data-name="Capa 2"><g id="Capa_1-2" data-name="Capa 1"><path class="cls-1" d="M60.31,201.57H57.79a1.1,1.1,0,0,0-1,.73l-26,71.81L4.67,202.3a1.1,1.1,0,0,0-1-.73H1.11A1.11,1.11,0,0,0,.2,202a1.09,1.09,0,0,0-.13,1l28.06,77.4a1.1,1.1,0,0,0,1,.73h3.08a1.1,1.1,0,0,0,1-.73l28.06-77.4a1.09,1.09,0,0,0-.13-1A1.11,1.11,0,0,0,60.31,201.57Z"/><rect class="cls-1" x="70.15" y="201.57" width="4.55" height="79.62" rx="1.11"/><path class="cls-1" d="M130.93,203.79a36.12,36.12,0,0,1,26.43,11,1.16,1.16,0,0,0,1.57,0l1.68-1.69a1.12,1.12,0,0,0,0-1.57,42,42,0,0,0-59.46,0,42.16,42.16,0,0,0,29.78,72,40.55,40.55,0,0,0,29.68-12.34,1.12,1.12,0,0,0,0-1.57l-1.68-1.69a1.12,1.12,0,0,0-1.57,0,37.3,37.3,0,0,1-53,0,37.59,37.59,0,0,1,26.53-64.15Z"/><rect class="cls-1" x="177.71" y="201.57" width="4.55" height="79.62" rx="1.11"/><path class="cls-1" d="M261.22,201.57h-2.34a1.11,1.11,0,0,0-1.11,1.11v70.79L206.09,202a1.1,1.1,0,0,0-.9-.46h-3a1.11,1.11,0,0,0-1.11,1.11v77.4a1.11,1.11,0,0,0,1.11,1.11h2.34a1.11,1.11,0,0,0,1.1-1.11V209.29l51.69,71.44a1.09,1.09,0,0,0,.89.46h3a1.11,1.11,0,0,0,1.1-1.11v-77.4A1.1,1.1,0,0,0,261.22,201.57Z"/><rect class="cls-1" x="281.24" y="201.57" width="4.55" height="79.62" rx="1.11"/><path class="cls-1" d="M373.42,279.61l-36-77.4a1.13,1.13,0,0,0-1-.64h-3a1.1,1.1,0,0,0-1,.64l-36,77.4a1.1,1.1,0,0,0,.07,1.07,1.09,1.09,0,0,0,.93.51H300a1.1,1.1,0,0,0,1-.64l5.6-12h56.58l5.59,12a1.1,1.1,0,0,0,1,.64h2.62a1.12,1.12,0,0,0,.94-.51A1.1,1.1,0,0,0,373.42,279.61ZM361.05,264H308.78l26.14-56.22Z"/><path class="cls-1" d="M186.76,0h0a80.78,80.78,0,0,0-80.54,80.55h0a80.77,80.77,0,0,0,80.54,80.54h0a80.78,80.78,0,0,0,80.55-80.54h0A80.79,80.79,0,0,0,186.76,0Zm42.18,125.63a4.6,4.6,0,0,1-4.6,4.6h-76a4.6,4.6,0,0,1-4.59-4.6V62.81c0-.07,0-.13,0-.2,13.52,14.79,41.85,45.69,42.6,45.69,1.12,0,29.18-30.81,42.61-45.63,0,0,0,.1,0,.14ZM236.1,46l-7,7.79c-13.43,14.81-41.49,45.62-42.61,45.62-.75,0-29.08-30.9-42.6-45.69l-7-7.72A1.7,1.7,0,0,1,138,43.19h.69l6.74,7.34L146.75,52l37-27.33a4.59,4.59,0,0,1,5.46,0l17.55,13v-8a1.13,1.13,0,0,1,1.13-1.12h12.08a1.13,1.13,0,0,1,1.13,1.12V48.24l5.1,3.78,1.35-1.48L234,43.43l.06,0A1.69,1.69,0,0,1,236.1,46Z"/><path class="cls-1" d="M191.2,50.35c-2.15,2-3.44,4.71-4.59,7.4,0,.23,0,.55,0,.57s-.23-.36-.31-.57a21.06,21.06,0,0,0-2.48-4.88,12,12,0,0,0-3.87-3.82,7.56,7.56,0,0,0-2.76-1c-5.86-.82-8.34,5-7.33,9.51.78,3.47,3.08,6.37,5.31,9.14l10.18,12.6a5.5,5.5,0,0,0,.56.62l.7.71.6-.82c.08-.12.17-.24.26-.35l10.3-12.76c2.49-3.09,5.06-6.33,5.51-10.35A8.28,8.28,0,0,0,202,50.78C199.17,46.65,194.17,47.64,191.2,50.35Z"/></g></g></svg>