<svg xmlns="http://www.w3.org/2000/svg" viewBox="0 0 427.52 88"><defs><style>.cls-1{fill:#a0c17c;}</style></defs><g id="Capa_2" data-name="Capa 2"><g id="Capa_1-2" data-name="Capa 1"><path class="cls-1" d="M148.85,8.69H146.6a1,1,0,0,0-.93.65L122.55,73,99.34,9.34a1,1,0,0,0-.92-.65H96.17a1,1,0,0,0-.81.42,1,1,0,0,0-.11.9l25,68.65a1,1,0,0,0,.93.65h2.74a1,1,0,0,0,.93-.65l25-68.65a1,1,0,0,0-.12-.9A1,1,0,0,0,148.85,8.69Z"/><rect class="cls-1" x="157.6" y="8.69" width="4.05" height="70.62" rx="0.99"/><path class="cls-1" d="M211.67,10.66a32.2,32.2,0,0,1,23.52,9.78,1,1,0,0,0,1.4,0l1.49-1.5a1,1,0,0,0,0-1.39,37.44,37.44,0,0,0-52.9,0A36.13,36.13,0,0,0,174.24,44a36.23,36.23,0,0,0,10.94,26.49,37.44,37.44,0,0,0,52.9,0,1,1,0,0,0,0-1.39l-1.49-1.5a1,1,0,0,0-1.4,0,33.27,33.27,0,0,1-47.12,0A32.3,32.3,0,0,1,178.29,44a32.2,32.2,0,0,1,9.78-23.52A32.3,32.3,0,0,1,211.67,10.66Z"/><rect class="cls-1" x="253.3" y="8.69" width="4.05" height="70.62" rx="0.99"/><path class="cls-1" d="M327.59,8.69h-2.08a1,1,0,0,0-1,1V72.46l-46-63.36a1,1,0,0,0-.79-.41h-2.67a1,1,0,0,0-1,1V78.33a1,1,0,0,0,1,1h2.08a1,1,0,0,0,1-1V15.54l46,63.36a1,1,0,0,0,.8.41h2.66a1,1,0,0,0,1-1V9.67A1,1,0,0,0,327.59,8.69Z"/><rect class="cls-1" x="345.41" y="8.69" width="4.05" height="70.62" rx="0.99"/><path class="cls-1" d="M427.43,77.91l-32-68.65a1,1,0,0,0-.89-.57h-2.67a1,1,0,0,0-.89.57l-32,68.65a1,1,0,0,0,.9,1.4h2.33a1,1,0,0,0,.89-.57l5-10.66h50.33l5,10.66a1,1,0,0,0,.89.57h2.33a1,1,0,0,0,.9-1.4ZM416.42,64H369.91l23.25-49.86Z"/><path class="cls-1" d="M44,0h0A44.13,44.13,0,0,0,0,44H0A44.13,44.13,0,0,0,44,88h0A44.13,44.13,0,0,0,88,44h0A44.13,44.13,0,0,0,44,0ZM67,68.63a2.51,2.51,0,0,1-2.51,2.51H23a2.51,2.51,0,0,1-2.51-2.51V34.31s0-.07,0-.11c7.38,8.08,22.86,25,23.27,25,.61,0,15.94-16.83,23.27-24.92,0,0,0,0,0,.07ZM71,25.15s-1.52,1.69-3.85,4.25c-7.33,8.1-22.66,24.93-23.27,24.93-.41,0-15.89-16.88-23.27-25l-3.85-4.22a.93.93,0,0,1,.63-1.56h.38l3.68,4,.74.81,20.2-14.93a2.49,2.49,0,0,1,3,0l9.59,7.08V16.21a.61.61,0,0,1,.61-.62h6.61a.62.62,0,0,1,.61.62V26.35l2.79,2.07.74-.81,3.55-3.89,0,0A.92.92,0,0,1,71,25.15Z"/><path class="cls-1" d="M46.42,27.5a11.35,11.35,0,0,0-2.5,4.05c0,.12,0,.3,0,.31s-.13-.2-.18-.31a11.42,11.42,0,0,0-1.35-2.67,6.58,6.58,0,0,0-2.11-2.09,4.27,4.27,0,0,0-1.51-.54c-3.2-.44-4.56,2.72-4,5.2a12.74,12.74,0,0,0,2.9,5l5.55,6.89c.1.11.2.23.31.34l.39.38.32-.45.14-.19,5.63-7c1.36-1.68,2.77-3.46,3-5.65a4.53,4.53,0,0,0-.69-3.05C50.78,25.48,48,26,46.42,27.5Z"/></g></g></svg>