<svg xmlns="http://www.w3.org/2000/svg" viewBox="0 0 276.51 84.42"><g id="Capa_2" data-name="Capa 2"><g id="Capa_1-2" data-name="Capa 1"><rect x="83.19" y="32.35" width="2.9" height="50.58" rx="0.71"/><path d="M121.92,33.76a23.08,23.08,0,0,1,16.84,7,.72.72,0,0,0,1,0l1.07-1.07a.7.7,0,0,0,0-1,26.83,26.83,0,0,0-37.89,0,25.89,25.89,0,0,0-7.83,18.92,26.75,26.75,0,0,0,26.81,26.81,25.88,25.88,0,0,0,18.91-7.84.69.69,0,0,0,0-1l-1.07-1.08a.72.72,0,0,0-1,0A23.88,23.88,0,0,1,98,57.61a23.9,23.9,0,0,1,23.91-23.85Z"/><rect x="151.73" y="32.35" width="2.9" height="50.58" rx="0.71"/><path d="M204.94,32.35h-1.49a.7.7,0,0,0-.71.7V78L169.81,32.64a.72.72,0,0,0-.57-.29h-1.91a.7.7,0,0,0-.7.7V82.22a.7.7,0,0,0,.7.71h1.49a.71.71,0,0,0,.71-.71v-45l32.93,45.39a.7.7,0,0,0,.57.29h1.91a.7.7,0,0,0,.7-.71V33.05A.7.7,0,0,0,204.94,32.35Z"/><rect x="217.7" y="32.35" width="2.9" height="50.58" rx="0.71"/><path d="M276.44,81.92,253.49,32.76a.69.69,0,0,0-.64-.41H251a.69.69,0,0,0-.64.41L227.36,81.92a.71.71,0,0,0,0,.68.69.69,0,0,0,.59.33h1.67a.72.72,0,0,0,.64-.41l3.56-7.64h36.06l3.56,7.64a.72.72,0,0,0,.64.41h1.67a.7.7,0,0,0,.6-.33A.71.71,0,0,0,276.44,81.92ZM268.55,72h-33.3L251.9,36.27Z"/><path d="M39.62,67c-.59,0-23-24.5-33.78-36.23,0,.05,0,.11,0,.16V80.78a3.65,3.65,0,0,0,3.65,3.64H69.77a3.64,3.64,0,0,0,3.65-3.64V31s0-.07,0-.11C62.76,42.6,40.51,67,39.62,67Z"/><path d="M77.51,15.55l-.05,0L72.3,21.23,71.22,22.4l-4-3V4.68a.89.89,0,0,0-.89-.89H56.7a.89.89,0,0,0-.89.89V11L41.89.71a3.65,3.65,0,0,0-4.33,0L8.25,22.39,7.17,21.22,1.82,15.4H1.28a1.34,1.34,0,0,0-.92,2.26S2.57,20.09,6,23.78C16.67,35.51,39.13,60,39.73,60c.89,0,23.13-24.42,33.78-36.18,3.38-3.72,5.59-6.17,5.59-6.17A1.34,1.34,0,0,0,77.51,15.55ZM53,25.85c-.36,3.18-2.39,5.76-4.37,8.2L40.5,44.17l-.21.27-.47.66c-.18-.19-.37-.38-.56-.56s-.3-.32-.44-.5l-8.07-10c-1.77-2.19-3.59-4.5-4.21-7.25-.8-3.6,1.16-8.19,5.81-7.54a6,6,0,0,1,2.19.79,9.56,9.56,0,0,1,3.07,3,16.67,16.67,0,0,1,2,3.87c.06.16.19.46.25.45s0-.27,0-.45a16.29,16.29,0,0,1,3.65-5.87c2.34-2.15,6.31-2.94,8.53.34A6.51,6.51,0,0,1,53,25.85Z"/></g></g></svg>