<svg xmlns="http://www.w3.org/2000/svg" viewBox="0 0 583.83 178.25"><defs><style>.cls-1{fill:#a0c17c;}</style></defs><g id="Capa_2" data-name="Capa 2"><g id="Capa_1-2" data-name="Capa 1"><rect class="cls-1" x="175.65" y="68.3" width="6.13" height="106.8" rx="1.49"/><path class="cls-1" d="M257.42,71.28A48.73,48.73,0,0,1,293,86.07a1.54,1.54,0,0,0,2.11,0l2.26-2.26a1.5,1.5,0,0,0,0-2.11,56.64,56.64,0,0,0-80,0,54.65,54.65,0,0,0-16.55,39.94,56.51,56.51,0,0,0,56.61,56.61,54.65,54.65,0,0,0,39.94-16.55,1.5,1.5,0,0,0,0-2.11l-2.26-2.26a1.5,1.5,0,0,0-2.11,0,50.42,50.42,0,0,1-86.05-35.69,50.5,50.5,0,0,1,50.48-50.36Z"/><rect class="cls-1" x="320.36" y="68.3" width="6.13" height="106.8" rx="1.49"/><path class="cls-1" d="M432.72,68.3h-3.15a1.49,1.49,0,0,0-1.49,1.49v95L358.55,68.92a1.49,1.49,0,0,0-1.21-.62h-4a1.49,1.49,0,0,0-1.49,1.49V173.61a1.49,1.49,0,0,0,1.49,1.49h3.15a1.49,1.49,0,0,0,1.49-1.49v-95l69.53,95.82a1.5,1.5,0,0,0,1.21.62h4a1.49,1.49,0,0,0,1.49-1.49V69.79A1.49,1.49,0,0,0,432.72,68.3Z"/><rect class="cls-1" x="459.67" y="68.3" width="6.13" height="106.8" rx="1.49"/><path class="cls-1" d="M583.69,173,535.24,69.16a1.49,1.49,0,0,0-1.35-.86h-4a1.5,1.5,0,0,0-1.35.86L480.07,173a1.46,1.46,0,0,0,.09,1.43,1.49,1.49,0,0,0,1.26.69h3.52a1.5,1.5,0,0,0,1.35-.86l7.53-16.13h76.12l7.53,16.13a1.49,1.49,0,0,0,1.35.86h3.52a1.5,1.5,0,0,0,1.26-.69A1.49,1.49,0,0,0,583.69,173ZM567,152H496.72l35.16-75.4Z"/><path class="cls-1" d="M83.66,141.53C82.41,141.53,35,89.8,12.34,65c0,.11,0,.23,0,.34V170.55a7.69,7.69,0,0,0,7.69,7.7H147.32a7.69,7.69,0,0,0,7.69-7.7V65.37c0-.08,0-.15,0-.23C132.51,90,85.54,141.53,83.66,141.53Z"/><path class="cls-1" d="M163.66,32.84a.25.25,0,0,0-.1.08l-10.91,11.9-2.26,2.48L141.84,41V9.88A1.88,1.88,0,0,0,140,8H119.73a1.89,1.89,0,0,0-1.89,1.88V23.23L88.46,1.51a7.7,7.7,0,0,0-9.15,0L17.41,47.28,15.14,44.8,3.84,32.51H2.7A2.84,2.84,0,0,0,.76,37.29s4.67,5.13,11.8,12.92C35.2,75,82.63,126.71,83.88,126.71c1.88,0,48.85-51.57,71.34-76.38,7.12-7.86,11.79-13,11.79-13A2.82,2.82,0,0,0,163.66,32.84ZM112,54.57c-.76,6.73-5.06,12.16-9.23,17.32L85.52,93.26c-.15.19-.3.38-.44.58l-1,1.38c-.4-.39-.79-.79-1.18-1.18A11.46,11.46,0,0,1,82,93l-17-21.11c-3.74-4.63-7.59-9.49-8.89-15.3C54.35,49,58.49,39.3,68.31,40.68a12.25,12.25,0,0,1,4.63,1.65,20,20,0,0,1,6.46,6.4,34.38,34.38,0,0,1,4.15,8.17c.14.34.4,1,.54,1s.09-.57.06-1c1.92-4.51,4.07-9.08,7.69-12.39,5-4.55,13.34-6.21,18,.71A14,14,0,0,1,112,54.57Z"/></g></g></svg>